<svg width="769" height="769" viewBox="0 0 769 769" fill="none" xmlns="http://www.w3.org/2000/svg">
<rect width="769" height="769" fill="#F5F5F5"/>
<path fill-rule="evenodd" clip-rule="evenodd" d="M384.5 769C596.854 769 769 596.854 769 384.5C769 172.147 596.854 0 384.5 0C172.147 0 0 172.147 0 384.5C0 596.854 172.147 769 384.5 769ZM384.5 717C568.135 717 717 568.135 717 384.5C717 200.865 568.135 52 384.5 52C200.865 52 52 200.865 52 384.5C52 568.135 200.865 717 384.5 717Z" fill="#001C47"/>
<rect x="27" y="58" width="141" height="141" fill="#DADADA" stroke="black" stroke-width="8"/>
<rect x="47.2125" y="78.2125" width="100.575" height="100.575" fill="white"/>
<rect x="48.2125" y="79.2125" width="98.575" height="98.575" stroke="black" stroke-opacity="0.4" stroke-width="2"/>
<path d="M97.9766 130.383V147H68.0234V138.609H71.7734V117.961H68.0234V109.711H87.5V117.961H83.7734V138.609H89.7734L92.0234 130.383H97.9766ZM128.117 147H101.328V139.898C104.266 138.773 106.781 137.352 108.875 135.633C110.125 134.555 111.133 133.578 111.898 132.703C112.664 131.828 113.219 130.938 113.562 130.031C113.922 129.125 114.102 128.094 114.102 126.938C114.102 125.812 113.781 124.859 113.141 124.078C112.5 123.297 111.734 122.906 110.844 122.906C109.844 122.906 109.07 123.219 108.523 123.844C107.977 124.469 107.703 125.258 107.703 126.211C107.703 126.758 107.844 127.312 108.125 127.875C108.422 128.438 108.766 128.906 109.156 129.281L103.883 133.359C102.789 132.406 101.914 131.133 101.258 129.539C100.664 128.086 100.367 126.664 100.367 125.273V124.711C100.367 122.805 100.906 121.117 101.984 119.648C103.078 118.133 104.625 116.945 106.625 116.086C108.625 115.227 110.906 114.797 113.469 114.797C115.922 114.797 118.094 115.242 119.984 116.133C121.891 117.023 123.375 118.281 124.438 119.906C125.516 121.516 126.055 123.344 126.055 125.391C126.055 127.312 125.5 129.133 124.391 130.852C123.281 132.586 122.047 134.047 120.688 135.234C119.328 136.422 117.773 137.656 116.023 138.938L115.109 139.57H118.906C120.438 139.539 121.656 139.297 122.562 138.844C123.484 138.391 123.945 137.477 123.945 136.102H127.977L128.117 147Z" fill="black"/>
<rect x="601" y="58" width="141" height="141" fill="#DADADA" stroke="black" stroke-width="8"/>
<rect x="621.213" y="78.2125" width="100.575" height="100.575" fill="white"/>
<rect x="622.213" y="79.2125" width="98.575" height="98.575" stroke="black" stroke-opacity="0.4" stroke-width="2"/>
<path d="M672.977 130.383V147H643.023V138.609H646.773V117.961H643.023V109.711H662.5V117.961H658.773V138.609H664.773L667.023 130.383H672.977ZM687.086 147.422C684.539 147.422 682.383 147.281 680.617 147C678.852 146.719 677.297 146.109 675.953 145.172V137.062C678.797 139.328 681.695 140.461 684.648 140.461C686.023 140.461 687.227 140.188 688.258 139.641C689.305 139.078 689.828 138.203 689.828 137.016C689.828 135.641 689.258 134.648 688.117 134.039C686.992 133.43 685.641 133.125 684.062 133.125C683.531 133.125 682.945 133.195 682.305 133.336C681.695 133.492 681.289 133.586 681.086 133.617H680.617V129.68L688.633 122.859V122.625H683.453C682.703 122.625 682.125 122.742 681.719 122.977C681.328 123.211 681.039 123.547 680.852 123.984C680.664 124.422 680.461 125.086 680.242 125.977L675.672 125.93V115.312H700.727V121.523L694.094 127.031C695.625 127.141 697.008 127.633 698.242 128.508C699.492 129.367 700.484 130.461 701.219 131.789C701.953 133.102 702.32 134.477 702.32 135.914C702.32 138.477 701.672 140.609 700.375 142.312C699.094 144.016 697.312 145.297 695.031 146.156C692.75 147 690.102 147.422 687.086 147.422Z" fill="black"/>
<path d="M479.06 711H208.198C217.726 652.018 257.565 599.842 247.217 569.444C239.957 548.12 177.8 468.268 164.642 403.842C154.116 352.301 114.886 302.212 96.5867 283.61C70.2719 256.86 32.6143 237.967 36.244 215.101C40.781 186.517 79.7996 182.434 129.253 201.036C178.707 219.638 242.68 313.101 261.282 333.064C276.254 333.064 299.846 274.082 324.8 215.101C360.503 130.712 428.699 178.351 428.699 208.749C472.708 171.545 508.097 211.017 508.097 249.129C557.474 216.356 591.58 271.961 579.96 310.561C594.069 271.846 628.242 207.961 654.644 171.545C680.958 135.249 751.442 152.036 728.597 201.036C707.727 245.801 658.273 353.753 627.421 427.434C594.755 525.435 566.171 566.268 527.153 613C495.938 650.385 482.085 693.91 479.06 711Z" fill="#D3BAA2"/>
<path d="M208.198 711H479.06C482.085 693.91 495.938 650.385 527.153 613C566.171 566.268 594.755 525.435 627.421 427.434C658.273 353.753 707.727 245.801 728.597 201.036C751.442 152.036 680.958 135.249 654.644 171.545C627.226 209.363 591.427 276.805 578.421 314.916C594.17 276.351 559.366 215.101 508.097 249.129C508.097 211.017 472.708 171.545 428.699 208.749C428.699 178.351 360.503 130.712 324.8 215.101C299.846 274.082 276.254 333.064 261.282 333.064C242.68 313.101 178.707 219.638 129.253 201.036C79.7996 182.434 40.781 186.517 36.244 215.101C32.6143 237.967 70.2719 256.86 96.5867 283.61C114.886 302.212 154.116 352.301 164.642 403.842C177.8 468.268 239.957 548.12 247.217 569.444C257.565 599.842 217.726 652.018 208.198 711Z" stroke="white" stroke-width="9" stroke-linejoin="round"/>
<path fill-rule="evenodd" clip-rule="evenodd" d="M59.4646 590C127.624 697.581 247.722 769 384.5 769C521.278 769 641.376 697.581 709.535 590H645.91C585.029 667.339 490.564 717 384.5 717C278.436 717 183.971 667.339 123.09 590H59.4646Z" fill="#001C47"/>
<path d="M64 668.6C55.6 668.6 48.2 667.133 41.8 664.2C35.4 661.267 30.4667 657.2 27 652C23.5333 646.667 21.8 640.533 21.8 633.6C21.8 627.733 23 622.4 25.4 617.6C27.9333 612.8 31.2667 609 35.4 606.2C39.6667 603.4 44.3333 602 49.4 602C54.0667 602 58 603.2 61.2 605.6C64.4 607.867 66.4 611.067 67.2 615.2C60.2667 615.2 54.7333 617.067 50.6 620.8C46.4667 624.4 44.4 629.333 44.4 635.6C44.4 641.333 46.1333 645.933 49.6 649.4C53.0667 652.867 57.6667 654.6 63.4 654.6C70.4667 654.6 76.2667 652.267 80.8 647.6C85.4667 642.8 87.8 636.8 87.8 629.6C87.8 623.333 86.0667 617.4 82.6 611.8C79.1333 606.2 73.9333 599.4 67 591.4C59.8 583.133 54.3333 576.067 50.6 570.2C47 564.2 45.2 557.667 45.2 550.6C45.2 543.667 47.1333 537.467 51 532C54.8667 526.4 60.2 522 67 518.8C73.8 515.6 81.4667 514 90 514C100.8 514 109.4 516.533 115.8 521.6C122.333 526.667 125.6 533.467 125.6 542C125.6 547.6 124.2 552.133 121.4 555.6C118.6 559.067 114.933 560.8 110.4 560.8C105.333 560.8 101.267 558.733 98.2 554.6C100.733 552.733 102.733 550.267 104.2 547.2C105.667 544.133 106.4 540.933 106.4 537.6C106.4 533.333 105.133 529.933 102.6 527.4C100.067 524.867 96.6 523.6 92.2 523.6C86.8667 523.6 82.4667 525.533 79 529.4C75.6667 533.133 74 537.933 74 543.8C74 549.133 75.5333 554.133 78.6 558.8C81.6667 563.333 86.4667 569.2 93 576.4C98.3333 582.133 102.6 587.067 105.8 591.2C109.133 595.333 111.933 600.133 114.2 605.6C116.6 610.933 117.8 616.733 117.8 623C117.8 631.533 115.4 639.267 110.6 646.2C105.933 653.133 99.4667 658.6 91.2 662.6C83.0667 666.6 74 668.6 64 668.6ZM201.263 666.2C193.129 666.2 187.129 664.067 183.263 659.8C179.529 655.4 177.663 650 177.663 643.6C177.663 640.8 177.996 637.667 178.663 634.2C179.329 630.6 179.996 627.133 180.663 623.8C181.463 620.467 181.996 618.333 182.263 617.4C183.329 612.733 184.329 608.133 185.263 603.6C186.196 599.067 186.663 595.4 186.663 592.6C186.663 585.8 184.263 582.4 179.463 582.4C175.996 582.4 172.929 584.133 170.263 587.6C167.596 590.933 165.463 595.333 163.863 600.8L150.263 665H121.462L150.463 529L180.063 525L169.263 575.4C175.929 567.933 183.729 564.2 192.663 564.2C199.463 564.2 204.863 566.067 208.863 569.8C212.863 573.533 214.863 579.2 214.863 586.8C214.863 590.667 214.396 595 213.463 599.8C212.529 604.467 211.196 610.2 209.463 617C208.396 621.133 207.396 625.2 206.463 629.2C205.663 633.067 205.263 636.133 205.263 638.4C205.263 641.067 205.863 643.133 207.063 644.6C208.263 646.067 210.329 646.8 213.263 646.8C217.263 646.8 220.463 645.4 222.863 642.6C225.263 639.667 227.663 635.2 230.062 629.2H238.463C233.529 643.867 227.796 653.733 221.263 658.8C214.863 663.733 208.196 666.2 201.263 666.2ZM254.039 666.2C246.439 666.2 240.106 663.6 235.039 658.4C229.972 653.2 227.439 645.067 227.439 634C227.439 624.133 229.372 613.8 233.239 603C237.239 592.067 243.106 582.867 250.839 575.4C258.706 567.8 268.039 564 278.839 564C284.306 564 288.372 564.933 291.039 566.8C293.706 568.667 295.039 571.133 295.039 574.2V575.6L297.239 565H326.039L311.639 633C311.106 635 310.839 637.133 310.839 639.4C310.839 645.133 313.572 648 319.039 648C322.772 648 325.972 646.267 328.639 642.8C331.439 639.333 333.639 634.8 335.239 629.2H343.639C338.706 643.6 332.572 653.4 325.239 658.6C318.039 663.667 310.772 666.2 303.439 666.2C297.839 666.2 293.306 664.667 289.839 661.6C286.506 658.4 284.506 653.8 283.839 647.8C279.972 653.267 275.639 657.733 270.839 661.2C266.172 664.533 260.572 666.2 254.039 666.2ZM267.039 646.8C270.372 646.8 273.639 645.267 276.839 642.2C280.172 639 282.439 634.667 283.639 629.2L293.239 584C293.239 582.267 292.572 580.6 291.239 579C289.906 577.267 287.839 576.4 285.039 576.4C279.706 576.4 274.906 579.533 270.639 585.8C266.372 591.933 263.039 599.4 260.639 608.2C258.239 616.867 257.039 624.533 257.039 631.2C257.039 637.867 257.972 642.133 259.839 644C261.839 645.867 264.239 646.8 267.039 646.8ZM410.513 666.2C402.246 666.2 395.979 664.267 391.713 660.4C387.446 656.4 385.312 650.733 385.312 643.4C385.312 640.2 385.713 636.733 386.513 633L388.112 625.2C388.646 622.933 388.913 620.467 388.913 617.8C388.913 611.4 386.513 608.2 381.713 608.2C379.579 608.2 377.313 608.8 374.913 610C372.646 611.2 369.979 613.067 366.913 615.6L356.513 665H327.712L356.713 529L386.313 525L371.313 595.4L409.913 565H429.713L389.713 592.8C391.713 592.267 393.913 592 396.313 592C403.513 592 408.979 594.2 412.713 598.6C416.446 603 418.313 608.6 418.313 615.4C418.313 618.2 418.046 620.733 417.513 623L415.313 633C414.646 635.4 414.313 637.533 414.313 639.4C414.313 644.333 416.913 646.8 422.113 646.8C426.113 646.8 429.313 645.4 431.713 642.6C434.113 639.667 436.513 635.2 438.913 629.2H447.313C439.046 653.867 426.779 666.2 410.513 666.2ZM462.828 666.2C455.228 666.2 448.895 663.6 443.828 658.4C438.761 653.2 436.228 645.067 436.228 634C436.228 624.133 438.161 613.8 442.028 603C446.028 592.067 451.895 582.867 459.628 575.4C467.495 567.8 476.828 564 487.628 564C493.095 564 497.161 564.933 499.828 566.8C502.495 568.667 503.828 571.133 503.828 574.2V575.6L506.028 565H534.828L520.428 633C519.895 635 519.628 637.133 519.628 639.4C519.628 642.067 520.228 644 521.428 645.2C522.761 646.267 524.895 646.8 527.828 646.8C529.695 646.8 531.161 646.533 532.228 646C529.295 653.467 526.495 658.733 523.828 661.8C521.161 664.733 517.295 666.2 512.228 666.2C506.761 666.2 502.295 664.6 498.828 661.4C495.495 658.067 493.428 653.467 492.628 647.6C484.495 660 474.561 666.2 462.828 666.2ZM475.828 646.8C479.161 646.8 482.428 645.267 485.628 642.2C488.961 639 491.228 634.667 492.428 629.2L502.028 584C502.028 582.267 501.361 580.6 500.028 579C498.695 577.267 496.628 576.4 493.828 576.4C488.495 576.4 483.695 579.533 479.428 585.8C475.161 591.933 471.828 599.4 469.428 608.2C467.028 616.867 465.828 624.533 465.828 631.2C465.828 637.867 466.761 642.133 468.628 644C470.628 645.867 473.028 646.8 475.828 646.8ZM573.188 666C563.721 666 554.721 663.667 546.188 659C537.654 654.333 533.388 645.333 533.388 632C533.388 623.333 535.454 616.4 539.588 611.2C543.854 606 549.854 603.4 557.588 603.4C566.654 603.4 571.854 606.8 573.188 613.6C566.388 614 561.721 616.333 559.188 620.6C556.788 624.867 555.588 629.733 555.588 635.2C555.588 640.933 557.254 645.4 560.588 648.6C563.921 651.8 567.988 653.4 572.788 653.4C577.054 653.4 581.121 652.133 584.987 649.6C588.987 647.067 592.254 643.2 594.788 638C597.321 632.8 598.588 626.533 598.588 619.2C598.588 611.067 596.321 603.533 591.788 596.6C587.388 589.533 580.788 584.467 571.988 581.4C579.054 579.4 585.188 576.267 590.388 572C595.588 567.6 599.521 562.8 602.188 557.6C604.854 552.267 606.188 547.2 606.188 542.4C606.188 537.467 604.854 533.533 602.188 530.6C599.654 527.533 595.921 526 590.987 526C586.188 526 582.321 527.467 579.388 530.4C576.588 533.2 575.188 536.933 575.188 541.6C575.188 544.8 575.788 547.8 576.988 550.6C578.321 553.4 580.254 555.133 582.788 555.8C577.854 560.333 572.788 562.6 567.588 562.6C563.454 562.6 559.988 561.133 557.188 558.2C554.521 555.133 553.188 550.933 553.188 545.6C553.188 539.6 554.988 534.333 558.587 529.8C562.321 525.133 567.321 521.533 573.588 519C579.854 516.467 586.854 515.2 594.588 515.2C602.454 515.2 609.188 516.533 614.788 519.2C620.388 521.867 624.588 525.4 627.388 529.8C630.321 534.2 631.788 539.067 631.788 544.4C631.788 551.333 629.454 558.133 624.788 564.8C620.121 571.467 613.321 577.067 604.388 581.6C612.788 584.4 619.054 588.733 623.188 594.6C627.454 600.333 629.588 607 629.588 614.6C629.588 622.867 627.188 631 622.388 639C617.721 646.867 611.054 653.333 602.388 658.4C593.854 663.467 584.121 666 573.188 666ZM731.884 602.2C731.884 607.4 729.884 612 725.884 616C721.884 620 716.751 622.6 710.484 623.8L701.684 665H673.884L688.884 622L685.084 620.8C679.751 619.333 675.551 618.267 672.484 617.6C669.418 616.933 666.151 616.6 662.684 616.6C653.884 616.6 646.684 618 641.084 620.8H640.284L636.084 613V612C649.818 595.6 660.551 580.867 668.284 567.8C676.018 554.733 679.884 542.267 679.884 530.4C679.884 526.4 679.351 522.267 678.284 518C681.084 517.067 684.418 516.6 688.284 516.6C694.284 516.6 698.951 518.267 702.284 521.6C705.618 524.8 707.284 528.933 707.284 534C707.284 540 704.618 547.133 699.284 555.4C694.084 563.533 687.618 571.667 679.884 579.8C672.284 587.8 664.818 594.733 657.484 600.6L657.684 601.2C660.084 600.267 662.884 599.467 666.084 598.8C669.418 598 672.551 597.6 675.484 597.6C678.818 597.6 682.818 598 687.484 598.8C692.151 599.6 695.084 600.133 696.284 600.4L712.484 553.8H725.284L715.484 600.2C720.151 598.467 724.351 595.333 728.084 590.8L728.684 591.2C730.818 594.933 731.884 598.6 731.884 602.2Z" fill="#1A1A1A"/>
<path d="M41.8 664.2L38.0501 672.382L38.0501 672.382L41.8 664.2ZM27 652L19.454 656.905L19.4825 656.949L19.5115 656.992L27 652ZM25.4 617.6L17.4405 613.399L17.3944 613.487L17.3502 613.575L25.4 617.6ZM35.4 606.2L30.4621 598.676L30.407 598.712L30.3524 598.749L35.4 606.2ZM61.2 605.6L55.8 612.8L55.8979 612.873L55.9978 612.944L61.2 605.6ZM67.2 615.2V624.2H78.109L76.036 613.49L67.2 615.2ZM50.6 620.8L56.511 627.587L56.5723 627.533L56.6326 627.479L50.6 620.8ZM49.6 649.4L55.964 643.036L49.6 649.4ZM80.8 647.6L74.3471 641.326L74.3445 641.329L80.8 647.6ZM82.6 611.8L90.2524 607.063L90.2524 607.063L82.6 611.8ZM67 591.4L73.8012 585.506L73.794 585.497L73.7867 585.489L67 591.4ZM50.6 570.2L42.8826 574.83L42.9435 574.932L43.007 575.032L50.6 570.2ZM51 532L58.3477 537.197L58.3771 537.156L58.4061 537.114L51 532ZM67 518.8L70.8322 526.943L70.8322 526.943L67 518.8ZM115.8 521.6L110.214 528.656L110.249 528.684L110.285 528.712L115.8 521.6ZM121.4 555.6L114.399 549.945L114.399 549.945L121.4 555.6ZM98.2 554.6L92.8612 547.354L85.5918 552.711L90.9721 559.963L98.2 554.6ZM104.2 547.2L96.0808 543.317L96.0808 543.317L104.2 547.2ZM79 529.4L72.2989 523.392L72.2927 523.399L72.2866 523.406L79 529.4ZM78.6 558.8L71.0787 563.743L71.1117 563.793L71.1455 563.843L78.6 558.8ZM93 576.4L86.335 582.448L86.3724 582.489L86.4103 582.53L93 576.4ZM105.8 591.2L98.6835 596.71L98.7382 596.78L98.7943 596.85L105.8 591.2ZM114.2 605.6L105.886 609.047L105.938 609.171L105.993 609.293L114.2 605.6ZM110.6 646.2L103.2 641.077L103.167 641.126L103.134 641.175L110.6 646.2ZM91.2 662.6L87.28 654.499L87.254 654.511L87.2281 654.524L91.2 662.6ZM64 659.6C56.6478 659.6 50.5682 658.318 45.5499 656.018L38.0501 672.382C45.8318 675.948 54.5522 677.6 64 677.6V659.6ZM45.5499 656.018C40.4707 653.69 36.9156 650.648 34.4885 647.008L19.5115 656.992C24.0177 663.752 30.3293 668.843 38.0501 672.382L45.5499 656.018ZM34.546 647.095C32.1134 643.353 30.8 638.955 30.8 633.6H12.8C12.8 642.111 14.9532 649.981 19.454 656.905L34.546 647.095ZM30.8 633.6C30.8 628.998 31.7314 625.062 33.4498 621.625L17.3502 613.575C14.2686 619.738 12.8 626.469 12.8 633.6H30.8ZM33.3595 621.801C35.265 618.19 37.6415 615.552 40.4476 613.651L30.3524 598.749C24.8919 602.448 20.6016 607.41 17.4405 613.399L33.3595 621.801ZM40.3379 613.724C43.149 611.88 46.1014 611 49.4 611V593C42.5652 593 36.1844 594.92 30.4621 598.676L40.3379 613.724ZM49.4 611C52.456 611 54.4073 611.755 55.8 612.8L66.6 598.4C61.5927 594.645 55.6773 593 49.4 593V611ZM55.9978 612.944C57.1586 613.766 57.9689 614.869 58.364 616.91L76.036 613.49C74.8311 607.265 71.6414 601.967 66.4022 598.256L55.9978 612.944ZM67.2 606.2C58.6062 606.2 50.7331 608.552 44.5674 614.121L56.6326 627.479C58.7336 625.581 61.9271 624.2 67.2 624.2V606.2ZM44.689 614.013C38.3009 619.577 35.4 627.145 35.4 635.6H53.4C53.4 631.521 54.6324 629.223 56.511 627.587L44.689 614.013ZM35.4 635.6C35.4 643.284 37.7962 650.324 43.236 655.764L55.964 643.036C54.4705 641.543 53.4 639.383 53.4 635.6H35.4ZM43.236 655.764C48.6759 661.204 55.7161 663.6 63.4 663.6V645.6C59.6172 645.6 57.4574 644.529 55.964 643.036L43.236 655.764ZM63.4 663.6C72.6667 663.6 80.8723 660.442 87.2555 653.871L74.3445 641.329C71.6611 644.091 68.2666 645.6 63.4 645.6V663.6ZM87.253 653.874C93.6838 647.259 96.8 638.948 96.8 629.6H78.8C78.8 634.652 77.2495 638.341 74.3471 641.326L87.253 653.874ZM96.8 629.6C96.8 621.573 94.553 614.01 90.2524 607.063L74.9476 616.537C77.5804 620.79 78.8 625.094 78.8 629.6H96.8ZM90.2524 607.063C86.4289 600.886 80.8845 593.679 73.8012 585.506L60.1988 597.294C66.9822 605.121 71.8378 611.514 74.9476 616.537L90.2524 607.063ZM73.7867 585.489C66.7345 577.392 61.5885 570.704 58.193 565.368L43.007 575.032C47.0781 581.429 52.8655 588.875 60.2133 597.311L73.7867 585.489ZM58.3174 565.57C55.5654 560.983 54.2 556.053 54.2 550.6H36.2C36.2 559.281 38.4346 567.417 42.8826 574.83L58.3174 565.57ZM54.2 550.6C54.2 545.458 55.596 541.088 58.3477 537.197L43.6523 526.803C38.6707 533.846 36.2 541.875 36.2 550.6H54.2ZM58.4061 537.114C61.2778 532.955 65.316 529.539 70.8322 526.943L63.1678 510.657C55.084 514.461 48.4556 519.845 43.5939 526.886L58.4061 537.114ZM70.8322 526.943C76.2807 524.379 82.6117 523 90 523V505C80.3217 505 71.3193 506.821 63.1678 510.657L70.8322 526.943ZM90 523C99.4288 523 105.852 525.203 110.214 528.656L121.386 514.544C112.948 507.864 102.171 505 90 505V523ZM110.285 528.712C114.539 532.011 116.6 536.144 116.6 542H134.6C134.6 530.789 130.128 521.322 121.315 514.488L110.285 528.712ZM116.6 542C116.6 546.082 115.602 548.454 114.399 549.945L128.401 561.255C132.798 555.812 134.6 549.118 134.6 542H116.6ZM114.399 549.945C113.341 551.254 112.269 551.8 110.4 551.8V569.8C117.598 569.8 123.859 566.879 128.401 561.255L114.399 549.945ZM110.4 551.8C108.235 551.8 106.829 551.125 105.428 549.237L90.9721 559.963C95.7048 566.341 102.431 569.8 110.4 569.8V551.8ZM103.539 561.845C107.355 559.034 110.268 555.372 112.319 551.083L96.0808 543.317C95.1987 545.161 94.1119 546.433 92.8612 547.354L103.539 561.845ZM112.319 551.083C114.354 546.829 115.4 542.304 115.4 537.6H97.4C97.4 539.562 96.9795 541.438 96.0808 543.317L112.319 551.083ZM115.4 537.6C115.4 531.435 113.502 525.574 108.964 521.036L96.236 533.764C96.7647 534.293 97.4 535.231 97.4 537.6H115.4ZM108.964 521.036C104.374 516.446 98.4084 514.6 92.2 514.6V532.6C94.7916 532.6 95.7598 533.288 96.236 533.764L108.964 521.036ZM92.2 514.6C84.388 514.6 77.5245 517.563 72.2989 523.392L85.7011 535.408C87.4088 533.503 89.3454 532.6 92.2 532.6V514.6ZM72.2866 523.406C67.2323 529.067 65 536.126 65 543.8H83C83 539.741 84.101 537.2 85.7134 535.394L72.2866 523.406ZM65 543.8C65 550.975 67.0952 557.681 71.0787 563.743L86.1214 553.857C83.9715 550.586 83 547.292 83 543.8H65ZM71.1455 563.843C74.5665 568.9 79.6984 575.134 86.335 582.448L99.665 570.352C93.235 563.266 88.7668 557.767 86.0546 553.757L71.1455 563.843ZM86.4103 582.53C91.64 588.152 95.7094 592.868 98.6835 596.71L112.917 585.69C109.491 581.265 105.027 576.115 99.5897 570.27L86.4103 582.53ZM98.7943 596.85C101.531 600.244 103.911 604.284 105.886 609.047L122.514 602.153C119.955 595.983 116.735 590.423 112.806 585.55L98.7943 596.85ZM105.993 609.293C107.834 613.384 108.8 617.914 108.8 623H126.8C126.8 615.553 125.366 608.483 122.407 601.907L105.993 609.293ZM108.8 623C108.8 629.726 106.945 635.668 103.2 641.077L118 651.323C123.855 642.865 126.8 633.341 126.8 623H108.8ZM103.134 641.175C99.4424 646.659 94.2589 651.122 87.28 654.499L95.1201 670.701C104.674 666.078 112.424 659.608 118.066 651.225L103.134 641.175ZM87.2281 654.524C80.4538 657.855 72.767 659.6 64 659.6V677.6C75.233 677.6 85.6795 675.345 95.1719 670.676L87.2281 654.524ZM183.263 659.8L176.4 665.623L176.495 665.735L176.594 665.844L183.263 659.8ZM178.663 634.2L187.501 635.9L187.506 635.869L187.512 635.839L178.663 634.2ZM180.663 623.8L171.911 621.7L171.871 621.867L171.837 622.035L180.663 623.8ZM182.263 617.4L190.916 619.872L190.982 619.641L191.036 619.405L182.263 617.4ZM170.263 587.6L177.29 593.222L177.344 593.155L177.396 593.087L170.263 587.6ZM163.863 600.8L155.225 598.272L155.129 598.6L155.058 598.935L163.863 600.8ZM150.263 665V674H157.556L159.067 666.865L150.263 665ZM121.462 665L112.66 663.123L110.341 674H121.462V665ZM150.463 529L149.257 520.081L142.981 520.929L141.66 527.123L150.463 529ZM180.063 525L188.863 526.886L191.545 514.366L178.857 516.081L180.063 525ZM169.263 575.4L160.462 573.514L153.341 606.745L175.976 581.394L169.263 575.4ZM213.463 599.8L222.288 601.565L222.292 601.541L222.297 601.518L213.463 599.8ZM209.463 617L218.177 619.249L218.18 619.236L218.184 619.223L209.463 617ZM206.463 629.2L197.698 627.155L197.672 627.265L197.649 627.377L206.463 629.2ZM222.863 642.6L229.696 648.457L229.763 648.379L229.828 648.299L222.863 642.6ZM230.062 629.2V620.2H223.969L221.706 625.857L230.062 629.2ZM238.463 629.2L246.993 632.069L250.985 620.2H238.463V629.2ZM221.263 658.8L226.757 665.928L226.768 665.92L226.778 665.912L221.263 658.8ZM201.263 657.2C194.593 657.2 191.483 655.468 189.931 653.756L176.594 665.844C182.776 672.665 191.665 675.2 201.263 675.2V657.2ZM190.125 653.977C187.925 651.384 186.663 648.116 186.663 643.6H168.663C168.663 651.884 171.134 659.416 176.4 665.623L190.125 653.977ZM186.663 643.6C186.663 641.495 186.915 638.944 187.501 635.9L169.824 632.5C169.077 636.39 168.663 640.105 168.663 643.6H186.663ZM187.512 635.839C188.171 632.278 188.83 628.853 189.488 625.565L171.837 622.035C171.162 625.413 170.487 628.922 169.813 632.561L187.512 635.839ZM189.414 625.9C190.227 622.513 190.713 620.583 190.916 619.872L173.609 614.928C173.278 616.084 172.698 618.42 171.911 621.7L189.414 625.9ZM191.036 619.405C192.117 614.678 193.131 610.014 194.078 605.415L176.447 601.785C175.528 606.253 174.541 610.789 173.489 615.395L191.036 619.405ZM194.078 605.415C195.065 600.617 195.663 596.275 195.663 592.6H177.663C177.663 594.525 177.326 597.516 176.447 601.785L194.078 605.415ZM195.663 592.6C195.663 588.416 194.974 583.668 192.215 579.76C189.052 575.278 184.271 573.4 179.463 573.4V591.4C179.603 591.4 179.293 591.423 178.769 591.176C178.2 590.907 177.763 590.499 177.51 590.14C177.296 589.838 177.35 589.767 177.452 590.199C177.554 590.633 177.663 591.401 177.663 592.6H195.663ZM179.463 573.4C172.485 573.4 167.009 577.069 163.129 582.113L177.396 593.087C178.166 592.086 178.728 591.684 178.991 591.535C179.196 591.419 179.307 591.4 179.463 591.4V573.4ZM163.235 581.978C159.634 586.478 157.05 592.034 155.225 598.272L172.5 603.328C173.875 598.632 175.558 595.388 177.29 593.222L163.235 581.978ZM155.058 598.935L141.458 663.135L159.067 666.865L172.667 602.665L155.058 598.935ZM150.263 656H121.462V674H150.263V656ZM130.265 666.877L159.265 530.877L141.66 527.123L112.66 663.123L130.265 666.877ZM151.668 537.919L181.268 533.919L178.857 516.081L149.257 520.081L151.668 537.919ZM171.262 523.114L160.462 573.514L178.063 577.286L188.863 526.886L171.262 523.114ZM175.976 581.394C181.164 575.583 186.618 573.2 192.663 573.2V555.2C180.84 555.2 170.694 560.283 162.549 569.406L175.976 581.394ZM192.663 573.2C197.763 573.2 200.768 574.556 202.722 576.379L215.003 563.22C208.957 557.577 201.163 555.2 192.663 555.2V573.2ZM202.722 576.379C204.278 577.832 205.863 580.696 205.863 586.8H223.863C223.863 577.704 221.447 569.235 215.003 563.22L202.722 576.379ZM205.863 586.8C205.863 589.962 205.479 593.707 204.628 598.082L222.297 601.518C223.313 596.293 223.863 591.371 223.863 586.8H205.863ZM204.637 598.035C203.745 602.495 202.452 608.065 200.741 614.777L218.184 619.223C219.939 612.335 221.313 606.439 222.288 601.565L204.637 598.035ZM200.748 614.751C199.665 618.95 198.648 623.084 197.698 627.155L215.227 631.245C216.144 627.316 217.127 623.317 218.177 619.249L200.748 614.751ZM197.649 627.377C196.802 631.472 196.263 635.232 196.263 638.4H214.263C214.263 637.035 214.523 634.662 215.276 631.023L197.649 627.377ZM196.263 638.4C196.263 642.311 197.136 646.68 200.097 650.299L214.028 638.901C214.155 639.055 214.24 639.196 214.294 639.302C214.347 639.406 214.361 639.459 214.356 639.441C214.341 639.39 214.263 639.078 214.263 638.4H196.263ZM200.097 650.299C203.767 654.785 209.12 655.8 213.263 655.8V637.8C212.497 637.8 212.324 637.698 212.522 637.768C212.639 637.809 212.867 637.905 213.152 638.098C213.444 638.294 213.75 638.561 214.028 638.901L200.097 650.299ZM213.263 655.8C219.638 655.8 225.429 653.435 229.696 648.457L216.029 636.743C215.496 637.365 214.887 637.8 213.263 637.8V655.8ZM229.828 648.299C233.077 644.328 235.882 638.884 238.419 632.543L221.706 625.857C219.443 631.516 217.448 635.005 215.897 636.901L229.828 648.299ZM230.062 638.2H238.463V620.2H230.062V638.2ZM229.932 626.331C225.144 640.566 220.112 648.303 215.747 651.688L226.778 665.912C235.48 659.164 241.914 647.167 246.993 632.069L229.932 626.331ZM215.768 651.672C210.671 655.601 205.891 657.2 201.263 657.2V675.2C210.501 675.2 219.054 671.866 226.757 665.928L215.768 651.672ZM235.039 658.4L228.593 664.681L228.593 664.681L235.039 658.4ZM233.239 603L224.787 599.908L224.776 599.937L224.766 599.966L233.239 603ZM250.839 575.4L257.09 581.875L257.092 581.873L250.839 575.4ZM291.039 566.8L296.2 559.427L296.2 559.427L291.039 566.8ZM295.039 575.6H286.039L303.851 577.429L295.039 575.6ZM297.239 565V556H289.915L288.427 563.171L297.239 565ZM326.039 565L334.844 566.865L337.145 556H326.039V565ZM311.639 633L320.335 635.319L320.395 635.093L320.444 634.865L311.639 633ZM328.639 642.8L321.638 637.145L321.571 637.228L321.505 637.313L328.639 642.8ZM335.239 629.2V620.2H328.45L326.585 626.728L335.239 629.2ZM343.639 629.2L352.153 632.117L356.236 620.2H343.639V629.2ZM325.239 658.6L330.419 665.96L330.432 665.951L330.445 665.942L325.239 658.6ZM289.839 661.6L283.606 668.092L283.739 668.219L283.876 668.341L289.839 661.6ZM283.839 647.8L292.784 646.806L290.168 623.266L276.491 642.603L283.839 647.8ZM270.839 661.2L276.07 668.524L276.089 668.51L276.108 668.496L270.839 661.2ZM276.839 642.2L283.066 648.698L283.072 648.692L276.839 642.2ZM283.639 629.2L292.43 631.13L292.436 631.1L292.443 631.07L283.639 629.2ZM293.239 584L302.043 585.87L302.239 584.945V584H293.239ZM291.239 579L284.105 584.487L284.213 584.627L284.325 584.762L291.239 579ZM270.639 585.8L278.027 590.94L278.053 590.902L278.078 590.865L270.639 585.8ZM260.639 608.2L269.313 610.602L269.317 610.585L269.322 610.568L260.639 608.2ZM259.839 644L253.475 650.364L253.585 650.474L253.698 650.579L259.839 644ZM254.039 657.2C248.739 657.2 244.771 655.492 241.485 652.119L228.593 664.681C235.44 671.708 244.139 675.2 254.039 675.2V657.2ZM241.485 652.119C238.738 649.3 236.439 643.923 236.439 634H218.439C218.439 646.21 221.207 657.1 228.593 664.681L241.485 652.119ZM236.439 634C236.439 625.32 238.139 616.016 241.712 606.034L224.766 599.966C220.606 611.584 218.439 622.946 218.439 634H236.439ZM241.691 606.092C245.263 596.33 250.417 588.318 257.09 581.875L244.588 568.925C235.795 577.415 229.216 587.803 224.787 599.908L241.691 606.092ZM257.092 581.873C263.305 575.871 270.405 573 278.839 573V555C265.673 555 254.106 559.729 244.586 568.927L257.092 581.873ZM278.839 573C283.589 573 285.441 573.867 285.878 574.173L296.2 559.427C291.303 555.999 285.023 555 278.839 555V573ZM285.878 574.173C286.07 574.308 286.156 574.395 286.176 574.417C286.186 574.428 286.183 574.426 286.171 574.409C286.159 574.392 286.141 574.365 286.122 574.33C286.102 574.294 286.085 574.255 286.07 574.216C286.055 574.177 286.045 574.144 286.039 574.121C286.027 574.071 286.039 574.089 286.039 574.2H304.039C304.039 567.99 301.098 562.856 296.2 559.427L285.878 574.173ZM286.039 574.2V575.6H304.039V574.2H286.039ZM303.851 577.429L306.051 566.829L288.427 563.171L286.227 573.771L303.851 577.429ZM297.239 574H326.039V556H297.239V574ZM317.234 563.135L302.834 631.135L320.444 634.865L334.844 566.865L317.234 563.135ZM302.943 630.681C302.19 633.505 301.839 636.424 301.839 639.4H319.839C319.839 637.843 320.022 636.495 320.335 635.319L302.943 630.681ZM301.839 639.4C301.839 643.55 302.821 648.333 306.375 652.061C310.006 655.869 314.806 657 319.039 657V639C318.434 639 318.281 638.918 318.422 638.967C318.5 638.994 318.648 639.055 318.836 639.173C319.026 639.293 319.221 639.449 319.403 639.639C319.583 639.829 319.715 640.015 319.804 640.171C319.892 640.324 319.925 640.423 319.929 640.436C319.931 640.444 319.839 640.146 319.839 639.4H301.839ZM319.039 657C326.066 657 331.732 653.541 335.773 648.287L321.505 637.313C320.213 638.993 319.479 639 319.039 639V657ZM335.641 648.455C339.393 643.809 342.058 638.094 343.893 631.672L326.585 626.728C325.22 631.506 323.485 634.858 321.638 637.145L335.641 648.455ZM335.239 638.2H343.639V620.2H335.239V638.2ZM335.125 626.283C330.422 640.011 325.086 647.676 320.033 651.258L330.445 665.942C340.059 659.124 346.99 647.189 352.153 632.117L335.125 626.283ZM320.06 651.24C314.066 655.458 308.572 657.2 303.439 657.2V675.2C312.973 675.2 322.013 671.876 330.419 665.96L320.06 651.24ZM303.439 657.2C299.553 657.2 297.294 656.179 295.802 654.859L283.876 668.341C289.317 673.154 296.126 675.2 303.439 675.2V657.2ZM296.072 655.108C294.672 653.763 293.29 651.363 292.784 646.806L274.894 648.794C275.721 656.237 278.34 663.037 283.606 668.092L296.072 655.108ZM276.491 642.603C273.123 647.365 269.468 651.088 265.57 653.904L276.108 668.496C281.81 664.378 286.822 659.169 291.187 652.997L276.491 642.603ZM265.608 653.876C262.675 655.972 258.968 657.2 254.039 657.2V675.2C262.177 675.2 269.67 673.095 276.07 668.524L265.608 653.876ZM267.039 655.8C273.375 655.8 278.758 652.826 283.066 648.698L270.612 635.702C268.52 637.707 267.369 637.8 267.039 637.8V655.8ZM283.072 648.692C287.941 644.018 290.929 637.965 292.43 631.13L274.848 627.27C273.949 631.369 272.404 633.982 270.606 635.708L283.072 648.692ZM292.443 631.07L302.043 585.87L284.435 582.13L274.835 627.33L292.443 631.07ZM302.239 584C302.239 579.758 300.551 576.116 298.153 573.238L284.325 584.762C284.482 584.95 284.451 584.964 284.383 584.793C284.349 584.707 284.311 584.589 284.282 584.444C284.254 584.298 284.239 584.148 284.239 584H302.239ZM298.373 573.513C294.873 568.963 289.775 567.4 285.039 567.4V585.4C285.532 585.4 285.515 585.478 285.209 585.35C285.05 585.283 284.848 585.175 284.635 585.012C284.42 584.848 284.242 584.665 284.105 584.487L298.373 573.513ZM285.039 567.4C275.591 567.4 268.381 573.125 263.2 580.735L278.078 590.865C281.43 585.942 283.82 585.4 285.039 585.4V567.4ZM263.251 580.66C258.284 587.8 254.569 596.252 251.956 605.832L269.322 610.568C271.509 602.548 274.46 596.067 278.027 590.94L263.251 580.66ZM251.965 605.798C249.419 614.994 248.039 623.495 248.039 631.2H266.039C266.039 625.571 267.059 618.739 269.313 610.602L251.965 605.798ZM248.039 631.2C248.039 634.88 248.29 638.32 248.947 641.323C249.565 644.15 250.766 647.654 253.475 650.364L266.203 637.636C267.046 638.479 266.846 638.917 266.531 637.477C266.255 636.213 266.039 634.187 266.039 631.2H248.039ZM253.698 650.579C257.408 654.042 262.019 655.8 267.039 655.8V637.8C266.459 637.8 266.271 637.692 265.98 637.421L253.698 650.579ZM391.713 660.4L385.557 666.966L385.612 667.018L385.669 667.069L391.713 660.4ZM386.513 633L395.313 634.886L395.321 634.847L395.329 634.808L386.513 633ZM388.112 625.2L379.352 623.139L379.322 623.265L379.296 623.392L388.112 625.2ZM374.913 610L370.888 601.95L370.794 601.997L370.702 602.046L374.913 610ZM366.913 615.6L361.181 608.661L358.754 610.666L358.106 613.746L366.913 615.6ZM356.513 665V674H363.815L365.319 666.854L356.513 665ZM327.712 665L318.91 663.123L316.591 674H327.712V665ZM356.713 529L355.507 520.081L349.231 520.929L347.91 527.123L356.713 529ZM386.313 525L395.115 526.876L397.78 514.369L385.107 516.081L386.313 525ZM371.313 595.4L362.51 593.524L357.322 617.875L376.881 602.471L371.313 595.4ZM409.913 565V556H406.794L404.344 557.929L409.913 565ZM429.713 565L434.849 572.39L458.432 556H429.713V565ZM389.713 592.8L384.576 585.41L392.031 601.496L389.713 592.8ZM412.713 598.6L405.85 604.423L412.713 598.6ZM417.513 623L408.752 620.939L408.737 621.002L408.723 621.066L417.513 623ZM415.313 633L423.984 635.409L424.05 635.173L424.102 634.934L415.313 633ZM431.713 642.6L438.546 648.457L438.613 648.379L438.678 648.299L431.713 642.6ZM438.913 629.2V620.2H432.819L430.556 625.857L438.913 629.2ZM447.313 629.2L455.846 632.06L459.821 620.2H447.313V629.2ZM410.513 657.2C403.516 657.2 399.77 655.556 397.756 653.731L385.669 667.069C392.188 672.977 400.976 675.2 410.513 675.2V657.2ZM397.868 653.834C395.855 651.947 394.312 648.919 394.312 643.4H376.312C376.312 652.548 379.037 660.853 385.557 666.966L397.868 653.834ZM394.312 643.4C394.312 640.941 394.621 638.114 395.313 634.886L377.712 631.114C376.804 635.352 376.312 639.459 376.312 643.4H394.312ZM395.329 634.808L396.929 627.008L379.296 623.392L377.696 631.192L395.329 634.808ZM396.873 627.261C397.587 624.23 397.913 621.063 397.913 617.8H379.913C379.913 619.871 379.705 621.637 379.352 623.139L396.873 627.261ZM397.913 617.8C397.913 613.735 397.196 609.045 394.313 605.2C391.064 600.869 386.308 599.2 381.713 599.2V617.2C381.922 617.2 381.681 617.235 381.207 617.024C380.971 616.919 380.72 616.771 380.478 616.578C380.236 616.385 380.049 616.182 379.913 616C379.644 615.642 379.655 615.479 379.731 615.783C379.81 616.096 379.913 616.733 379.913 617.8H397.913ZM381.713 599.2C377.869 599.2 374.223 600.282 370.888 601.95L378.937 618.05C380.402 617.318 381.29 617.2 381.713 617.2V599.2ZM370.702 602.046C367.685 603.643 364.491 605.926 361.181 608.661L372.644 622.539C375.467 620.207 377.607 618.757 379.123 617.954L370.702 602.046ZM358.106 613.746L347.706 663.146L365.319 666.854L375.719 617.454L358.106 613.746ZM356.513 656H327.712V674H356.513V656ZM336.515 666.877L365.515 530.877L347.91 527.123L318.91 663.123L336.515 666.877ZM357.918 537.919L387.518 533.919L385.107 516.081L355.507 520.081L357.918 537.919ZM377.51 523.124L362.51 593.524L380.115 597.276L395.115 526.876L377.51 523.124ZM376.881 602.471L415.481 572.071L404.344 557.929L365.744 588.329L376.881 602.471ZM409.913 574H429.713V556H409.913V574ZM424.576 557.61L384.576 585.41L394.849 600.19L434.849 572.39L424.576 557.61ZM392.031 601.496C393.166 601.194 394.574 601 396.313 601V583C393.251 583 390.259 583.34 387.394 584.104L392.031 601.496ZM396.313 601C401.58 601 404.239 602.524 405.85 604.423L419.575 592.777C413.72 585.876 405.445 583 396.313 583V601ZM405.85 604.423C407.965 606.916 409.313 610.333 409.313 615.4H427.313C427.313 606.867 424.927 599.084 419.575 592.777L405.85 604.423ZM409.313 615.4C409.313 617.641 409.098 619.467 408.752 620.939L426.273 625.061C426.994 621.999 427.313 618.759 427.313 615.4H409.313ZM408.723 621.066L406.523 631.066L424.102 634.934L426.302 624.934L408.723 621.066ZM406.641 630.591C405.824 633.531 405.313 636.5 405.313 639.4H423.313C423.313 638.567 423.468 637.269 423.984 635.409L406.641 630.591ZM405.313 639.4C405.313 643.378 406.384 647.984 410.068 651.479C413.663 654.89 418.24 655.8 422.113 655.8V637.8C421.496 637.8 421.31 637.724 421.414 637.756C421.555 637.801 421.986 637.974 422.457 638.421C422.938 638.877 423.188 639.361 423.291 639.654C423.377 639.899 423.313 639.868 423.313 639.4H405.313ZM422.113 655.8C428.488 655.8 434.279 653.435 438.546 648.457L424.879 636.743C424.346 637.365 423.737 637.8 422.113 637.8V655.8ZM438.678 648.299C441.927 644.328 444.732 638.884 447.269 632.543L430.556 625.857C428.293 631.516 426.298 635.005 424.747 636.901L438.678 648.299ZM438.913 638.2H447.313V620.2H438.913V638.2ZM438.779 626.34C430.885 649.895 420.768 657.2 410.513 657.2V675.2C432.79 675.2 447.207 657.838 455.846 632.06L438.779 626.34ZM443.828 658.4L437.382 664.681L437.382 664.681L443.828 658.4ZM442.028 603L433.576 599.908L433.565 599.937L433.555 599.966L442.028 603ZM459.628 575.4L465.879 581.875L465.881 581.873L459.628 575.4ZM499.828 566.8L504.989 559.427L504.989 559.427L499.828 566.8ZM503.828 575.6H494.828L512.64 577.429L503.828 575.6ZM506.028 565V556H498.704L497.216 563.171L506.028 565ZM534.828 565L543.633 566.865L545.934 556H534.828V565ZM520.428 633L529.124 635.319L529.184 635.093L529.233 634.865L520.428 633ZM521.428 645.2L515.064 651.564L515.417 651.916L515.806 652.228L521.428 645.2ZM532.228 646L540.605 649.291L549.181 627.461L528.203 637.95L532.228 646ZM523.828 661.8L530.488 667.854L530.554 667.781L530.62 667.706L523.828 661.8ZM498.828 661.4L492.464 667.764L492.591 667.891L492.724 668.013L498.828 661.4ZM492.628 647.6L501.546 646.384L498.296 622.55L485.103 642.664L492.628 647.6ZM485.628 642.2L491.855 648.698L491.861 648.692L485.628 642.2ZM492.428 629.2L501.219 631.13L501.225 631.1L501.232 631.07L492.428 629.2ZM502.028 584L510.832 585.87L511.028 584.945V584H502.028ZM500.028 579L492.895 584.487L493.002 584.627L493.114 584.762L500.028 579ZM479.428 585.8L486.816 590.94L486.842 590.902L486.868 590.865L479.428 585.8ZM469.428 608.2L478.102 610.602L478.106 610.585L478.111 610.568L469.428 608.2ZM468.628 644L462.264 650.364L462.374 650.474L462.487 650.579L468.628 644ZM462.828 657.2C457.529 657.2 453.56 655.492 450.274 652.119L437.382 664.681C444.229 671.708 452.928 675.2 462.828 675.2V657.2ZM450.274 652.119C447.527 649.3 445.228 643.923 445.228 634H427.228C427.228 646.21 429.996 657.1 437.382 664.681L450.274 652.119ZM445.228 634C445.228 625.32 446.928 616.016 450.501 606.034L433.555 599.966C429.395 611.584 427.228 622.946 427.228 634H445.228ZM450.48 606.092C454.052 596.33 459.206 588.318 465.879 581.875L453.377 568.925C444.584 577.415 438.005 587.803 433.576 599.908L450.48 606.092ZM465.881 581.873C472.094 575.871 479.195 573 487.628 573V555C474.462 555 462.896 559.729 453.375 568.927L465.881 581.873ZM487.628 573C492.378 573 494.23 573.867 494.667 574.173L504.989 559.427C500.093 555.999 493.812 555 487.628 555V573ZM494.667 574.173C494.86 574.308 494.945 574.395 494.965 574.417C494.975 574.428 494.972 574.426 494.96 574.409C494.948 574.392 494.93 574.365 494.911 574.33C494.891 574.294 494.874 574.255 494.859 574.216C494.844 574.177 494.834 574.144 494.829 574.121C494.817 574.071 494.828 574.089 494.828 574.2H512.828C512.828 567.99 509.887 562.856 504.989 559.427L494.667 574.173ZM494.828 574.2V575.6H512.828V574.2H494.828ZM512.64 577.429L514.84 566.829L497.216 563.171L495.016 573.771L512.64 577.429ZM506.028 574H534.828V556H506.028V574ZM526.023 563.135L511.623 631.135L529.233 634.865L543.633 566.865L526.023 563.135ZM511.732 630.681C510.979 633.505 510.628 636.424 510.628 639.4H528.628C528.628 637.843 528.811 636.495 529.124 635.319L511.732 630.681ZM510.628 639.4C510.628 643.131 511.428 647.928 515.064 651.564L527.792 638.836C528.406 639.45 528.624 640.022 528.674 640.182C528.711 640.304 528.628 640.098 528.628 639.4H510.628ZM515.806 652.228C519.53 655.207 524.179 655.8 527.828 655.8V637.8C527.364 637.8 526.998 637.779 526.72 637.749C526.441 637.72 526.278 637.686 526.211 637.669C526.052 637.629 526.46 637.7 527.05 638.172L515.806 652.228ZM527.828 655.8C530.381 655.8 533.427 655.463 536.253 654.05L528.203 637.95C528.405 637.849 528.558 637.795 528.643 637.768C528.727 637.741 528.757 637.738 528.718 637.745C528.68 637.752 528.588 637.766 528.435 637.779C528.283 637.791 528.082 637.8 527.828 637.8V655.8ZM523.851 642.709C521.001 649.964 518.653 654.036 517.037 655.894L530.62 667.706C534.337 663.431 537.588 656.97 540.605 649.291L523.851 642.709ZM517.169 655.746C516.655 656.311 515.51 657.2 512.228 657.2V675.2C519.08 675.2 525.668 673.155 530.488 667.854L517.169 655.746ZM512.228 657.2C508.64 657.2 506.475 656.21 504.933 654.787L492.724 668.013C498.115 672.99 504.883 675.2 512.228 675.2V657.2ZM505.192 655.036C503.572 653.416 502.149 650.808 501.546 646.384L483.711 648.816C484.707 656.125 487.417 662.717 492.464 667.764L505.192 655.036ZM485.103 642.664C478.135 653.286 470.722 657.2 462.828 657.2V675.2C478.401 675.2 490.854 666.714 500.154 652.536L485.103 642.664ZM475.828 655.8C482.164 655.8 487.547 652.826 491.855 648.698L479.401 635.702C477.309 637.707 476.159 637.8 475.828 637.8V655.8ZM491.861 648.692C496.73 644.018 499.718 637.965 501.219 631.13L483.637 627.27C482.738 631.369 481.193 633.982 479.395 635.708L491.861 648.692ZM501.232 631.07L510.832 585.87L493.225 582.13L483.624 627.33L501.232 631.07ZM511.028 584C511.028 579.758 509.34 576.116 506.942 573.238L493.114 584.762C493.271 584.95 493.24 584.964 493.172 584.793C493.138 584.707 493.1 584.589 493.071 584.444C493.043 584.298 493.028 584.148 493.028 584H511.028ZM507.162 573.513C503.662 568.963 498.564 567.4 493.828 567.4V585.4C494.321 585.4 494.304 585.478 493.998 585.35C493.839 585.283 493.637 585.175 493.424 585.012C493.209 584.848 493.031 584.665 492.895 584.487L507.162 573.513ZM493.828 567.4C484.38 567.4 477.17 573.125 471.989 580.735L486.868 590.865C490.219 585.942 492.609 585.4 493.828 585.4V567.4ZM472.04 580.66C467.073 587.8 463.358 596.252 460.745 605.832L478.111 610.568C480.298 602.548 483.249 596.067 486.816 590.94L472.04 580.66ZM460.755 605.798C458.208 614.994 456.828 623.495 456.828 631.2H474.828C474.828 625.571 475.848 618.739 478.102 610.602L460.755 605.798ZM456.828 631.2C456.828 634.88 457.079 638.32 457.736 641.323C458.354 644.15 459.555 647.654 462.264 650.364L474.992 637.636C475.835 638.479 475.635 638.917 475.32 637.477C475.044 636.213 474.828 634.187 474.828 631.2H456.828ZM462.487 650.579C466.197 654.042 470.808 655.8 475.828 655.8V637.8C475.248 637.8 475.06 637.692 474.769 637.421L462.487 650.579ZM546.188 659L541.869 666.896L541.869 666.896L546.188 659ZM539.588 611.2L532.63 605.491L532.586 605.545L532.542 605.6L539.588 611.2ZM573.188 613.6L573.716 622.584L584.002 621.979L582.019 611.868L573.188 613.6ZM559.188 620.6L551.449 616.005L551.395 616.096L551.343 616.188L559.188 620.6ZM560.588 648.6L554.355 655.092L554.355 655.092L560.588 648.6ZM584.987 649.6L580.172 641.997L580.113 642.034L580.055 642.072L584.987 649.6ZM594.788 638L602.878 641.942L602.878 641.942L594.788 638ZM591.788 596.6L584.147 601.357L584.2 601.442L584.255 601.525L591.788 596.6ZM571.988 581.4L569.537 572.74L542.084 580.51L569.026 589.899L571.988 581.4ZM590.388 572L596.096 578.958L596.149 578.914L596.201 578.87L590.388 572ZM602.188 557.6L610.196 561.707L610.217 561.666L610.237 561.625L602.188 557.6ZM602.188 530.6L595.249 536.332L595.385 536.496L595.528 536.654L602.188 530.6ZM579.388 530.4L573.024 524.036L573.024 524.036L579.388 530.4ZM576.988 550.6L568.715 554.145L568.785 554.309L568.862 554.469L576.988 550.6ZM582.788 555.8L588.877 562.427L601.001 551.286L585.078 547.096L582.788 555.8ZM557.188 558.2L550.396 564.106L550.533 564.263L550.677 564.414L557.188 558.2ZM558.587 529.8L551.56 524.178L551.55 524.19L551.539 524.203L558.587 529.8ZM573.588 519L576.961 527.344L576.961 527.344L573.588 519ZM627.388 529.8L619.795 534.632L619.846 534.713L619.899 534.792L627.388 529.8ZM624.788 564.8L617.414 559.639L617.414 559.639L624.788 564.8ZM604.388 581.6L600.315 573.574L581.101 583.325L601.541 590.138L604.388 581.6ZM623.188 594.6L615.83 599.784L615.898 599.879L615.967 599.973L623.188 594.6ZM622.388 639L614.67 634.37L614.658 634.389L614.647 634.408L622.388 639ZM602.388 658.4L597.845 650.63L597.819 650.646L597.793 650.661L602.388 658.4ZM573.188 657C565.273 657 557.753 655.067 550.506 651.104L541.869 666.896C551.689 672.266 562.169 675 573.188 675V657ZM550.506 651.104C545.901 648.585 542.388 643.432 542.388 632H524.388C524.388 647.234 529.407 660.081 541.869 666.896L550.506 651.104ZM542.388 632C542.388 624.743 544.106 619.98 546.633 616.8L532.542 605.6C526.803 612.82 524.388 621.924 524.388 632H542.388ZM546.545 616.909C548.835 614.118 552.097 612.4 557.588 612.4V594.4C547.611 594.4 538.874 597.882 532.63 605.491L546.545 616.909ZM557.588 612.4C561.132 612.4 562.754 613.085 563.362 613.483C563.688 613.695 564.097 614.011 564.356 615.332L582.019 611.868C580.945 606.389 578.087 601.605 573.213 598.417C568.621 595.415 563.11 594.4 557.588 594.4V612.4ZM572.659 604.616C564.092 605.119 556.039 608.274 551.449 616.005L566.926 625.195C567.403 624.393 568.683 622.881 573.716 622.584L572.659 604.616ZM551.343 616.188C548.1 621.953 546.588 628.372 546.588 635.2H564.588C564.588 631.095 565.475 627.78 567.032 625.012L551.343 616.188ZM546.588 635.2C546.588 642.755 548.846 649.804 554.355 655.092L566.82 642.108C565.662 640.996 564.588 639.112 564.588 635.2H546.588ZM554.355 655.092C559.435 659.969 565.764 662.4 572.788 662.4V644.4C570.211 644.4 568.407 643.631 566.82 642.108L554.355 655.092ZM572.788 662.4C578.953 662.4 584.715 660.538 589.92 657.128L580.055 642.072C577.527 643.729 575.155 644.4 572.788 644.4V662.4ZM589.803 657.203C595.497 653.597 599.776 648.309 602.878 641.942L586.697 634.058C584.732 638.091 582.478 640.536 580.172 641.997L589.803 657.203ZM602.878 641.942C606.148 635.23 607.588 627.544 607.588 619.2H589.588C589.588 625.523 588.494 630.37 586.697 634.058L602.878 641.942ZM607.588 619.2C607.588 609.283 604.792 600.044 599.32 591.675L584.255 601.525C587.85 607.023 589.588 612.85 589.588 619.2H607.588ZM599.428 591.843C593.811 582.823 585.444 576.559 574.949 572.901L569.026 589.899C576.131 592.375 580.964 596.244 584.147 601.357L599.428 591.843ZM574.438 590.06C582.586 587.754 589.854 584.079 596.096 578.958L584.679 565.042C580.521 568.454 575.522 571.046 569.537 572.74L574.438 590.06ZM596.201 578.87C602.16 573.829 606.905 568.124 610.196 561.707L594.179 553.493C592.137 557.476 589.015 561.371 584.574 565.13L596.201 578.87ZM610.237 561.625C613.381 555.338 615.188 548.895 615.188 542.4H597.188C597.188 545.505 596.328 549.195 594.138 553.575L610.237 561.625ZM615.188 542.4C615.188 535.798 613.364 529.515 608.847 524.546L595.528 536.654C596.344 537.552 597.188 539.135 597.188 542.4H615.188ZM609.126 524.868C604.48 519.243 597.9 517 590.987 517V535C593.941 535 594.829 535.823 595.249 536.332L609.126 524.868ZM590.987 517C584.206 517 577.912 519.148 573.024 524.036L585.751 536.764C586.73 535.785 588.169 535 590.987 535V517ZM573.024 524.036C568.237 528.823 566.188 535.005 566.188 541.6H584.188C584.188 538.862 584.938 537.577 585.751 536.764L573.024 524.036ZM566.188 541.6C566.188 545.956 567.011 550.169 568.715 554.145L585.26 547.055C584.564 545.431 584.188 543.644 584.188 541.6H566.188ZM568.862 554.469C571.103 559.175 574.923 563.037 580.497 564.504L585.078 547.096C585.106 547.104 585.174 547.126 585.26 547.172C585.346 547.218 585.41 547.267 585.445 547.299C585.52 547.365 585.366 547.261 585.113 546.731L568.862 554.469ZM576.698 549.173C572.931 552.635 569.94 553.6 567.588 553.6V571.6C575.635 571.6 582.778 568.032 588.877 562.427L576.698 549.173ZM567.588 553.6C565.86 553.6 564.763 553.102 563.698 551.986L550.677 564.414C555.212 569.165 561.048 571.6 567.588 571.6V553.6ZM563.979 552.294C563.132 551.32 562.188 549.453 562.188 545.6H544.188C544.188 552.414 545.91 558.946 550.396 564.106L563.979 552.294ZM562.188 545.6C562.188 541.552 563.348 538.277 565.636 535.397L551.539 524.203C546.627 530.39 544.188 537.648 544.188 545.6H562.188ZM565.615 535.422C568.263 532.112 571.935 529.376 576.961 527.344L570.214 510.656C562.707 513.691 556.378 518.154 551.56 524.178L565.615 535.422ZM576.961 527.344C582.012 525.302 587.845 524.2 594.588 524.2V506.2C585.863 506.2 577.696 507.632 570.214 510.656L576.961 527.344ZM594.588 524.2C601.464 524.2 606.806 525.368 610.918 527.326L618.657 511.074C611.569 507.699 603.445 506.2 594.588 506.2V524.2ZM610.918 527.326C615.284 529.405 618.061 531.908 619.795 534.632L634.98 524.968C631.114 518.892 625.491 514.328 618.657 511.074L610.918 527.326ZM619.899 534.792C621.838 537.7 622.788 540.827 622.788 544.4H640.788C640.788 537.306 638.804 530.7 634.876 524.808L619.899 534.792ZM622.788 544.4C622.788 549.183 621.211 554.215 617.414 559.639L632.161 569.961C637.697 562.052 640.788 553.484 640.788 544.4H622.788ZM617.414 559.639C613.77 564.845 608.23 569.558 600.315 573.574L608.46 589.626C618.412 584.576 626.472 578.088 632.161 569.961L617.414 559.639ZM601.541 590.138C608.552 592.475 613.041 595.825 615.83 599.784L630.545 589.416C625.067 581.642 617.023 576.325 607.234 573.062L601.541 590.138ZM615.967 599.973C619.003 604.052 620.588 608.805 620.588 614.6H638.588C638.588 605.195 635.906 596.615 630.408 589.227L615.967 599.973ZM620.588 614.6C620.588 621.033 618.741 627.584 614.67 634.37L630.105 643.63C635.634 634.416 638.588 624.7 638.588 614.6H620.588ZM614.647 634.408C610.834 640.836 605.325 646.257 597.845 650.63L606.93 666.17C616.783 660.409 624.608 652.897 630.128 643.592L614.647 634.408ZM597.793 650.661C590.788 654.82 582.673 657 573.188 657V675C585.569 675 596.92 672.113 606.982 666.139L597.793 650.661ZM725.884 616L719.52 609.636L725.884 616ZM710.484 623.8L708.792 614.961L702.93 616.083L701.683 621.92L710.484 623.8ZM701.684 665V674H708.965L710.486 666.88L701.684 665ZM673.884 665L665.387 662.036L661.213 674H673.884V665ZM688.884 622L697.382 624.964L700.436 616.21L691.595 613.418L688.884 622ZM685.084 620.8L687.795 612.218L687.634 612.167L687.471 612.122L685.084 620.8ZM672.484 617.6L674.396 608.805L674.396 608.805L672.484 617.6ZM641.084 620.8V629.8H643.209L645.109 628.85L641.084 620.8ZM640.284 620.8L632.36 625.067L634.909 629.8H640.284V620.8ZM636.084 613H627.084V615.269L628.16 617.267L636.084 613ZM636.084 612L629.184 606.222L627.084 608.729V612H636.084ZM668.284 567.8L676.03 572.384L676.03 572.384L668.284 567.8ZM678.284 518L675.438 509.462L667.532 512.097L669.553 520.183L678.284 518ZM702.284 521.6L695.92 527.964L695.985 528.029L696.052 528.092L702.284 521.6ZM699.284 555.4L691.722 550.521L691.712 550.536L691.702 550.552L699.284 555.4ZM679.884 579.8L673.362 573.598L673.359 573.601L679.884 579.8ZM657.484 600.6L651.862 593.572L646.962 597.492L648.946 603.446L657.484 600.6ZM657.684 601.2L649.146 604.046L652.136 613.014L660.946 609.588L657.684 601.2ZM666.084 598.8L667.92 607.611L668.053 607.583L668.185 607.551L666.084 598.8ZM687.484 598.8L689.005 589.929L689.005 589.929L687.484 598.8ZM696.284 600.4L694.332 609.186L702.154 610.924L704.785 603.355L696.284 600.4ZM712.484 553.8V544.8H706.085L703.983 550.845L712.484 553.8ZM725.284 553.8L734.09 555.66L736.384 544.8H725.284V553.8ZM715.484 600.2L706.679 598.34L703.302 614.325L718.618 608.637L715.484 600.2ZM728.084 590.8L733.077 583.312L726.308 578.799L721.137 585.079L728.084 590.8ZM728.684 591.2L736.499 586.735L735.444 584.89L733.677 583.712L728.684 591.2ZM722.884 602.2C722.884 604.791 721.996 607.16 719.52 609.636L732.248 622.364C737.773 616.84 740.884 610.009 740.884 602.2H722.884ZM719.52 609.636C716.954 612.203 713.523 614.055 708.792 614.961L712.177 632.639C719.979 631.145 726.815 627.797 732.248 622.364L719.52 609.636ZM701.683 621.92L692.883 663.12L710.486 666.88L719.286 625.68L701.683 621.92ZM701.684 656H673.884V674H701.684V656ZM682.382 667.964L697.382 624.964L680.387 619.036L665.387 662.036L682.382 667.964ZM691.595 613.418L687.795 612.218L682.374 629.382L686.174 630.582L691.595 613.418ZM687.471 612.122C682.079 610.639 677.698 609.523 674.396 608.805L670.573 626.395C673.404 627.01 677.423 628.027 682.698 629.478L687.471 612.122ZM674.396 608.805C670.64 607.989 666.728 607.6 662.684 607.6V625.6C665.574 625.6 668.195 625.878 670.573 626.395L674.396 608.805ZM662.684 607.6C653.019 607.6 644.311 609.125 637.059 612.75L645.109 628.85C649.058 626.875 654.75 625.6 662.684 625.6V607.6ZM641.084 611.8H640.284V629.8H641.084V611.8ZM648.209 616.533L644.009 608.733L628.16 617.267L632.36 625.067L648.209 616.533ZM645.084 613V612H627.084V613H645.084ZM642.985 617.778C656.915 601.142 667.97 586.002 676.03 572.384L660.539 563.216C653.132 575.731 642.72 590.058 629.184 606.222L642.985 617.778ZM676.03 572.384C684.359 558.31 688.884 544.271 688.884 530.4H670.884C670.884 540.262 667.677 551.156 660.539 563.216L676.03 572.384ZM688.884 530.4C688.884 525.595 688.243 520.728 687.016 515.817L669.553 520.183C670.459 523.806 670.884 527.205 670.884 530.4H688.884ZM681.13 526.538C682.778 525.989 685.103 525.6 688.284 525.6V507.6C683.733 507.6 679.39 508.145 675.438 509.462L681.13 526.538ZM688.284 525.6C692.581 525.6 694.704 526.747 695.92 527.964L708.648 515.236C703.198 509.786 695.988 507.6 688.284 507.6V525.6ZM696.052 528.092C697.437 529.422 698.284 531.122 698.284 534H716.284C716.284 526.744 713.799 520.178 708.517 515.108L696.052 528.092ZM698.284 534C698.284 537.486 696.658 542.869 691.722 550.521L706.847 560.279C712.577 551.397 716.284 542.514 716.284 534H698.284ZM691.702 550.552C686.856 558.131 680.762 565.816 673.362 573.598L686.407 586.002C694.474 577.517 701.313 568.936 706.867 560.248L691.702 550.552ZM673.359 573.601C665.994 581.355 658.827 588.001 651.862 593.572L663.107 607.628C670.809 601.466 678.575 594.245 686.409 585.999L673.359 573.601ZM648.946 603.446L649.146 604.046L666.223 598.354L666.023 597.754L648.946 603.446ZM660.946 609.588C662.779 608.875 665.083 608.202 667.92 607.611L664.249 589.989C660.685 590.732 657.389 591.658 654.422 592.812L660.946 609.588ZM668.185 607.551C670.942 606.89 673.365 606.6 675.484 606.6V588.6C671.737 588.6 667.893 589.11 663.984 590.049L668.185 607.551ZM675.484 606.6C678.146 606.6 681.609 606.924 685.964 607.671L689.005 589.929C684.027 589.076 679.49 588.6 675.484 588.6V606.6ZM685.964 607.671C690.706 608.484 693.394 608.977 694.332 609.186L698.237 591.614C696.775 591.289 693.596 590.716 689.005 589.929L685.964 607.671ZM704.785 603.355L720.985 556.755L703.983 550.845L687.783 597.445L704.785 603.355ZM712.484 562.8H725.284V544.8H712.484V562.8ZM716.479 551.94L706.679 598.34L724.29 602.06L734.09 555.66L716.479 551.94ZM718.618 608.637C725.021 606.259 730.472 602.059 735.032 596.521L721.137 585.079C718.23 588.608 715.281 590.675 712.351 591.763L718.618 608.637ZM723.092 598.288L723.692 598.688L733.677 583.712L733.077 583.312L723.092 598.288ZM720.87 595.665C722.378 598.303 722.884 600.445 722.884 602.2H740.884C740.884 596.755 739.258 591.563 736.499 586.735L720.87 595.665Z" fill="white"/>
</svg>
